<svg xmlns="http://www.w3.org/2000/svg" xmlns:xlink="http://www.w3.org/1999/xlink"><symbol id="icon-bookmarks" viewBox="0 0 14 16"><path d="M14 15c0 .55-.368.741-.818.426l-5.363-3.765c-.45-.315-1.187-.315-1.637 0L.818 15.426C.368 15.741 0 15.55 0 15V1c0-.55.45-1 1-1h12c.55 0 1 .45 1 1v14z"/></symbol><symbol id="icon-cart" viewBox="0 0 15 15"><circle cx="4.5" cy="13.5" r="1.5"/><circle cx="12.5" cy="13.5" r="1.5"/><path d="M15 2H4.07l-.422-2H0v2h2.031l1.985 9H15V9H9.441L15 6.951z"/></symbol><symbol id="icon-down-dir" viewBox="0 0 11 10"><path d="M5.5 10L0 0h11"/></symbol><symbol id="icon-home" viewBox="0 0 15 12"><path d="M3 8v4h4V8h2v4h4V8L8 3.516z"/><path d="M14.831 6.365L13 4.751V0h-2v2.987L8.332.635c-.02-.017-.043-.023-.064-.037a.465.465 0 0 0-.08-.047.551.551 0 0 0-.095-.024C8.062.521 8.032.515 8 .515c-.031 0-.061.006-.092.012a.46.46 0 0 0-.095.025c-.028.011-.053.029-.08.046-.021.014-.045.02-.064.037l-6.498 5.73a.501.501 0 0 0 .33.875.497.497 0 0 0 .331-.125L8 1.677l6.169 5.438a.501.501 0 0 0 .662-.75z"/></symbol><symbol id="icon-login" viewBox="0 0 20 17"><path fill="#32425C" d="M14.875 8.5L6 0v6H0v5h6v6z"/><path fill="#32425C" d="M16.986 15.01h-5.027V17h5.027c2.178 0 3.004-1.81 3.029-3.026V3.028C19.99 1.811 19.164 0 16.986 0h-5.027v1.99h5.027c.839 0 .992.681 1.01 1.057v10.904c-.017.376-.171 1.059-1.01 1.059z"/></symbol><symbol id="icon-logout" viewBox="0 0 21 17"><g fill="#32425C"><path d="M21 8.5L12.125 0v6h-6v5h6v6z"/><path d="M3.106 13.952V3.048c.018-.376.171-1.057 1.01-1.057h5.027V0H4.116C1.938 0 1.112 1.81 1.087 3.027v10.946C1.112 15.189 1.938 17 4.116 17h5.027v-1.99H4.116c-.839 0-.992-.683-1.01-1.058z"/></g></symbol><symbol id="icon-phone" viewBox="0 0 19 19"><path fill="#B7BFC8" d="M15.572 18.985h-.941c-4.129-.488-7.157-2.408-9.359-4.864C3.062 11.66 1.318 8.492.978 4.228V3.084c.078-.774.459-1.304.898-1.757C2.425.766 3.25.044 4.002.019c.554-.018 1.5.38 1.879.899.329.446.504 1.339.656 2.003.154.671.505 1.643.408 2.289-.148 1.007-1.487 1.434-1.879 2.166 1.307 3.135 3.443 5.439 6.293 7.031.715-.392 1.346-1.572 2.332-1.595.359-.009.818.178 1.184.286.402.121.75.275 1.104.408.596.224 1.648.521 2.004 1.021.365.513.57 1.356.49 1.879-.164 1.041-1.879 2.197-2.901 2.579z"/></symbol><symbol id="icon-search" viewBox="0 0 17 17"><path d="M17 15.586l-3.542-3.542A7.465 7.465 0 0 0 15 7.5 7.5 7.5 0 1 0 7.5 15c1.71 0 3.282-.579 4.544-1.542L15.586 17 17 15.586zM2 7.5C2 4.467 4.467 2 7.5 2 10.532 2 13 4.467 13 7.5c0 3.032-2.468 5.5-5.5 5.5A5.506 5.506 0 0 1 2 7.5z"/></symbol><symbol id="icon-up-dir" viewBox="0 0 11 10"><path d="M5.5 0L0 10h11z"/></symbol><symbol id="icon-user" viewBox="0 0 20 18"><path fill="#32425C" d="M17.881 14.166c-2.144-.735-4.256-1.666-5.207-2.39-.657-.501-.77-1.618-.517-2.415 1.118-.903 1.864-2.477 1.864-4.278C14.021 2.276 12.221 0 10 0S5.979 2.276 5.979 5.083c0 1.801.746 3.374 1.863 4.277.253.798.141 1.915-.517 2.416-.95.724-3.063 1.654-5.207 2.39S0 18 0 18h20s.025-3.099-2.119-3.834z"/></symbol></svg>